<svg fill="currentColor" viewBox="0 0 72.402 63.402" xmlns="http://www.w3.org/2000/svg">
 <path d="m36.49 25.402c-3.4256 0-6.3241-1.2648-8.8011-3.7945-2.477-2.477-3.6891-5.4809-3.6891-8.9065 0-3.531 1.2121-6.5349 3.6891-9.0119s5.4809-3.6891 9.0119-3.6891 6.5349 1.2121 8.9592 3.7418c2.477 2.477 3.7418 5.4809 3.7418 9.0119s-1.2648 6.4822-3.7945 8.9592c-2.477 2.4242-5.5336 3.6891-9.1173 3.6891z"/>
 <path d="m12.49 63.402c-3.4256 0-6.3241-1.2648-8.8011-3.7945-2.477-2.477-3.6891-5.4809-3.6891-8.9065 0-3.531 1.2121-6.5349 3.6891-9.0119s5.4809-3.6891 9.0119-3.6891 6.5349 1.2121 8.9592 3.7418c2.477 2.477 3.7418 5.4809 3.7418 9.0119s-1.2648 6.4822-3.7945 8.9592c-2.477 2.4242-5.5336 3.6891-9.1173 3.6891z"/>
 <path d="m59.49 63.402c-3.4256 0-6.3241-1.2648-8.8011-3.7945-2.477-2.477-3.6891-5.4809-3.6891-8.9065 0-3.531 1.2121-6.5349 3.6891-9.0119s5.4809-3.6891 9.0119-3.6891 6.5349 1.2121 8.9592 3.7418c2.477 2.477 3.7418 5.4809 3.7418 9.0119s-1.2648 6.4822-3.7945 8.9592c-2.477 2.4242-5.5336 3.6891-9.1173 3.6891z"/>
</svg>
