<svg width="100px" height="100%" viewBox="0 0 644 98" version="1.1" xmlns="http://www.w3.org/2000/svg" xmlns:xlink="http://www.w3.org/1999/xlink" xml:space="preserve" xmlns:serif="http://www.serif.com/" style="fill-rule:evenodd;clip-rule:evenodd;stroke-linejoin:round;stroke-miterlimit:2;">
    <g transform="matrix(1,0,0,1,-27.1029,-198.067)">
        <g transform="matrix(144,0,0,144,674.456,293.395)">
        </g>
        <text x="128.336px" y="293.395px" style="font-family:'Karla-Bold', 'Karla', sans-serif;font-weight:700;font-size:144px;fill:white;">S<tspan x="241.736px 364.928px 476.6px 590.864px " y="293.395px 293.395px 293.395px 293.395px ">HARP</tspan></text>
    </g>
    <g transform="matrix(1,0,0,1,-645.103,-54.0671)">
        <g transform="matrix(0.36598,0,0,0.36598,465.314,72.9448)">
            <g transform="matrix(144,0,0,144,600.102,76.5632)">
            </g>
            <text x="553.374px" y="76.563px" style="font-family:'Karla-Bold', 'Karla', sans-serif;font-weight:700;font-size:144px;fill:white;">•</text>
        </g>
        <g transform="matrix(0.36598,0,0,0.36598,441.314,110.945)">
            <g transform="matrix(144,0,0,144,600.102,76.5632)">
            </g>
            <text x="553.374px" y="76.563px" style="font-family:'Karla-Bold', 'Karla', sans-serif;font-weight:700;font-size:144px;fill:white;">•</text>
        </g>
        <g transform="matrix(0.36598,0,0,0.36598,488.314,110.945)">
            <g transform="matrix(144,0,0,144,600.102,76.5632)">
            </g>
            <text x="553.374px" y="76.563px" style="font-family:'Karla-Bold', 'Karla', sans-serif;font-weight:700;font-size:144px;fill:white;">•</text>
        </g>
    </g>
</svg>
